<svg
  xmlns="http://www.w3.org/2000/svg"
  version="1.1"
  role="img"
  viewBox="0 0 400 400"
  width="1em"
  height="1em"
  fill="currentColor"
  stroke=""
>
  <title>ProjectEuler</title>
  <rect x="1" y="1" width="390" height="390" fill="none" stroke="currentColor" stroke-width="10" rx="30" ry="30"/>
  <path d="m175.45 200.74q-36.501-12.97-36.501-39.28 0-20.752 19.27-33.166 19.455-12.414 48.174-12.414 26.125 0 41.503 8.7085 15.379 8.5231 15.379 20.567 0 6.2997-4.8204 11.117-4.8149 4.632-11.117 4.632-10.376 0-17.047-14.452-9.2642-20.011-27.793-20.011-14.637 0-24.087 9.6348-9.4498 9.6347-9.4498 26.866 0 33.907 35.019 33.907 3.705 0 8.5231-0.74103 8.3384-1.1108 12.97-1.1108 11.302 0 11.302 6.4849 0 7.2261-11.488 7.2261-4.0749 0-12.229-1.2972-6.1147-1.1108-9.4498-1.1108-37.057 0-37.057 37.798 0 18.343 9.8203 29.646 9.8203 11.117 27.422 11.117 22.049 0 29.275-22.79 3.705-12.044 8.1522-16.676 4.6326-4.632 12.229-4.632 6.2996 0 11.302 4.632 5.1905 4.4467 5.1905 11.488 0 16.861-18.899 27.978-18.899 10.932-45.766 10.932-29.46 0-52.435-14.082-22.79-14.082-22.79-37.613 0-29.46 45.395-43.357z"/>
</svg>
