<svg width="256" height="256" viewBox="0 0 100 100" xmlns="http://www.w3.org/2000/svg" >
  <rect width="100" height="100" fill="#4467DD"/>
  <path d="m 31.02,42.51 q 5.3,0 9.8,0.1 2.35,-9.5 4.6,-13.2 1.5,-2.15 3,-3.1 0.6,-0.4 1.2,-0.4 0.65,0 0.65,1.95 0,1.95 -0.35,4.1 -0.3,2.15 -0.8,4.95 -1.65,9.2 -2.5,14.7 -0.8,5.5 -0.8,10.6 0,1.4 -2,1.4 -3.15,0 -4.3,-1.2 -1.15,-1.25 -1.15,-4.45 0,-3.25 1.3,-10.2 -5.5,-0.25 -6.95,-0.25 h -2.05 q -0.55,0 -1.1,0.05 -2.25,8.6 -2.25,13.6 0,2.95 -5.75,2.95 -1.25,0 -1.5,-1.25 -0.2,-1.3 -0.2,-4.15 0,-2.9 1.8,-10.35 -3.05,0.45 -4.45,0.45 -0.65,0 -0.65,-0.5 0,-1.1 1.6,-2.5 1.65,-1.4 4.8,-2.25 1.85,-6.4 3.7,-10.5 -5.4,0.1 -7.95,2.1 -0.8,0.6 -1.3,1.1 -0.5,0.45 -0.9,0.45 -0.35,0 -0.7,-0.6 -0.35,-0.6 -0.35,-1.6 0,-3.65 6.15,-5.55 4.9,-1.5 11.4,-1.55 h 0.1 q 0.35,0 0.95,0.4 0.65,0.4 0.65,1.3 0,0.9 -0.35,2.05 -0.3,1.1 -0.85,1.65 -0.3,2.35 -2.5,9.7 z m 57.39998,9.05 q 0.85,0 0.85,2.3 0,1.25 -1.05,3.05 -1.05,1.75 -2.75,3.25 -1.65,1.45 -3.7,2.4 -2.05,0.95 -4,0.95 -2.95,0 -4.1,-1.45 -1.1,-1.5 -1.1,-4.35 0,-2.9 2.25,-9.9 -6.9,-0.3 -10.05,-0.3 h -0.7 q -0.9,5.55 -0.9,11.65 0,2.7 -2.05,3.7 -0.95,0.45 -1.85,0.85 -0.85,0.4 -1.85,0.4 -2.5,0 -2.5,-4.5 0,-4.5 2.05,-11.55 -2.2,0.25 -3.9,0.5 -1.65,0.25 -2.6,0.25 -0.95,0 -0.95,-0.5 0,-1.5 2.45,-3.05 2.5,-1.55 6.75,-2.35 4.7,-11.95 11.5,-15.95 2.5,-1.5 5.3,-1.5 5,0.05 7.2,2.7 2.25,2.65 2.25,7.05 0.05,4.35 -2.65,11.35 -1,2.7 -1.85,4.9 -0.85,2.2 -0.85,3.55 0,1.35 0.2,2.05 0.2,0.7 0.95,0.7 1.35,0 6.35,-5.2 0.9,-1 1.3,-1 z m -10.65,-14.9 q 0,-4.35 -3.25,-4.35 -3.3,0 -5.7,2.8 -2.35,2.75 -3.65,7.4 l 11.35,0.15 q 1.25,-4 1.25,-6 z"
     stroke="#fbfbfb"
     fill="#fbfbfb" />
</svg>
